<mxfile host="65bd71144e">
    <diagram name="第 1 页" id="2-Hj4IHOK-MBHKEsi8h1">
        <mxGraphModel dx="1163" dy="330" grid="1" gridSize="10" guides="1" tooltips="1" connect="1" arrows="1" fold="1" page="1" pageScale="1" pageWidth="827" pageHeight="1169" math="0" shadow="0">
            <root>
                <mxCell id="0"/>
                <mxCell id="1" parent="0"/>
                <mxCell id="8mp29BtOPfdUK1hQrNgE-4" value="" style="edgeStyle=orthogonalEdgeStyle;rounded=0;orthogonalLoop=1;jettySize=auto;html=1;fontSize=20;" parent="1" source="8mp29BtOPfdUK1hQrNgE-1" target="8mp29BtOPfdUK1hQrNgE-3" edge="1">
                    <mxGeometry relative="1" as="geometry"/>
                </mxCell>
                <mxCell id="8mp29BtOPfdUK1hQrNgE-1" value="&lt;span style=&quot;font-size: 20px;&quot;&gt;Producer&lt;br&gt;wikimedia&lt;br&gt;&lt;/span&gt;" style="rounded=0;whiteSpace=wrap;html=1;" parent="1" vertex="1">
                    <mxGeometry x="40" y="200" width="120" height="60" as="geometry"/>
                </mxCell>
                <mxCell id="8mp29BtOPfdUK1hQrNgE-7" value="" style="edgeStyle=orthogonalEdgeStyle;rounded=0;orthogonalLoop=1;jettySize=auto;html=1;fontSize=20;" parent="1" source="8mp29BtOPfdUK1hQrNgE-2" target="8mp29BtOPfdUK1hQrNgE-6" edge="1">
                    <mxGeometry relative="1" as="geometry"/>
                </mxCell>
                <mxCell id="8mp29BtOPfdUK1hQrNgE-2" value="&lt;span style=&quot;font-size: 20px;&quot;&gt;Consumer&lt;br&gt;wikimedia&lt;br&gt;&lt;/span&gt;" style="rounded=0;whiteSpace=wrap;html=1;" parent="1" vertex="1">
                    <mxGeometry x="360" y="200" width="120" height="60" as="geometry"/>
                </mxCell>
                <mxCell id="8mp29BtOPfdUK1hQrNgE-5" value="" style="edgeStyle=orthogonalEdgeStyle;rounded=0;orthogonalLoop=1;jettySize=auto;html=1;fontSize=20;" parent="1" source="8mp29BtOPfdUK1hQrNgE-3" target="8mp29BtOPfdUK1hQrNgE-2" edge="1">
                    <mxGeometry relative="1" as="geometry"/>
                </mxCell>
                <mxCell id="8mp29BtOPfdUK1hQrNgE-3" value="&lt;span style=&quot;font-size: 20px;&quot;&gt;Topic&lt;br&gt;wikimedia&lt;br&gt;&lt;/span&gt;" style="rounded=0;whiteSpace=wrap;html=1;" parent="1" vertex="1">
                    <mxGeometry x="200" y="200" width="120" height="60" as="geometry"/>
                </mxCell>
                <mxCell id="8mp29BtOPfdUK1hQrNgE-9" value="" style="edgeStyle=orthogonalEdgeStyle;rounded=0;orthogonalLoop=1;jettySize=auto;html=1;fontSize=20;" parent="1" source="8mp29BtOPfdUK1hQrNgE-6" target="8mp29BtOPfdUK1hQrNgE-8" edge="1">
                    <mxGeometry relative="1" as="geometry"/>
                </mxCell>
                <mxCell id="8mp29BtOPfdUK1hQrNgE-6" value="&lt;span style=&quot;font-size: 20px;&quot;&gt;Mongo&lt;br&gt;wikimedia&lt;br&gt;&lt;/span&gt;" style="rounded=0;whiteSpace=wrap;html=1;" parent="1" vertex="1">
                    <mxGeometry x="520" y="200" width="120" height="60" as="geometry"/>
                </mxCell>
                <mxCell id="8mp29BtOPfdUK1hQrNgE-11" value="" style="edgeStyle=orthogonalEdgeStyle;rounded=0;orthogonalLoop=1;jettySize=auto;html=1;fontSize=20;" parent="1" source="8mp29BtOPfdUK1hQrNgE-8" target="8mp29BtOPfdUK1hQrNgE-10" edge="1">
                    <mxGeometry relative="1" as="geometry"/>
                </mxCell>
                <mxCell id="8mp29BtOPfdUK1hQrNgE-8" value="&lt;span style=&quot;font-size: 20px;&quot;&gt;Spark&lt;br&gt;DataProcessing&lt;br&gt;&lt;/span&gt;" style="rounded=0;whiteSpace=wrap;html=1;" parent="1" vertex="1">
                    <mxGeometry x="520" y="300" width="120" height="60" as="geometry"/>
                </mxCell>
                <mxCell id="8mp29BtOPfdUK1hQrNgE-10" value="&lt;font style=&quot;font-size: 20px;&quot;&gt;NoteBook Show Chart&lt;br&gt;&lt;/font&gt;" style="rounded=0;whiteSpace=wrap;html=1;" parent="1" vertex="1">
                    <mxGeometry x="360" y="300" width="120" height="60" as="geometry"/>
                </mxCell>
            </root>
        </mxGraphModel>
    </diagram>
</mxfile>